Normalized EMG Linear Envelopes
nRows=32
nColumns=17

endheader
time	1_BAD	2_Glutmax_R	3_Vaslat_R	4_Recfem_R	5_Bifem_R	6_Gasmed_R	7_BAD	8_Soleus_R	9_Tibant_R	10_Glutmax_L	11_Vaslat_L	12_Recfem_L	13_Bifem_L	14_Gasmed_L	15_Soleus_L	16_Tibant_L
18.937	0.407170	0.147686	0.154222	0.571730	0.026259	0.125858	0.138194	0.175787	0.126050	0.266118	0.036889	0.038035	0.028273	0.131203	0.096057	0.415651	
18.938	0.399833	0.144947	0.152780	0.572335	0.025818	0.125988	0.142149	0.171438	0.125368	0.259820	0.036603	0.038010	0.028330	0.129178	0.094656	0.418207	
18.939	0.392226	0.142332	0.151325	0.572791	0.025379	0.126201	0.146172	0.167195	0.124786	0.253550	0.036330	0.037990	0.028419	0.127120	0.093225	0.420695	
18.940	0.384363	0.139840	0.149857	0.573091	0.024944	0.126500	0.150252	0.163068	0.124302	0.247319	0.036070	0.037973	0.028539	0.125032	0.091766	0.423102	
18.941	0.376258	0.137472	0.148375	0.573232	0.024514	0.126887	0.154383	0.159064	0.123915	0.241133	0.035825	0.037960	0.028691	0.122919	0.090279	0.425414	
18.942	0.367925	0.135228	0.146879	0.573211	0.024090	0.127364	0.158556	0.155189	0.123621	0.235003	0.035596	0.037947	0.028872	0.120785	0.088764	0.427618	
18.943	0.359382	0.133107	0.145366	0.573024	0.023674	0.127935	0.162762	0.151450	0.123418	0.228937	0.035384	0.037935	0.029083	0.118634	0.087221	0.429700	
18.944	0.350644	0.131108	0.143836	0.572670	0.023266	0.128600	0.166993	0.147854	0.123301	0.222942	0.035191	0.037921	0.029322	0.116469	0.085651	0.431649	
18.945	0.341727	0.129230	0.142287	0.572145	0.022867	0.129360	0.171239	0.144404	0.123266	0.217026	0.035016	0.037905	0.029588	0.114293	0.084054	0.433453	
18.946	0.332649	0.127470	0.140719	0.571449	0.022479	0.130218	0.175491	0.141107	0.123308	0.211197	0.034861	0.037885	0.029881	0.112111	0.082432	0.435100	
18.947	0.323428	0.125827	0.139130	0.570579	0.022101	0.131172	0.179741	0.137967	0.123422	0.205460	0.034726	0.037861	0.030198	0.109926	0.080785	0.436579	
18.948	0.314081	0.124298	0.137521	0.569537	0.021735	0.132224	0.183980	0.134986	0.123603	0.199823	0.034613	0.037830	0.030539	0.107741	0.079113	0.437882	
18.949	0.304626	0.122881	0.135889	0.568320	0.021382	0.133373	0.188198	0.132168	0.123843	0.194292	0.034520	0.037793	0.030903	0.105559	0.077419	0.438998	
18.950	0.295083	0.121572	0.134235	0.566930	0.021042	0.134617	0.192386	0.129515	0.124136	0.188872	0.034450	0.037749	0.031288	0.103383	0.075703	0.439920	
18.951	0.285469	0.120369	0.132559	0.565368	0.020715	0.135956	0.196535	0.127029	0.124476	0.183569	0.034401	0.037695	0.031691	0.101215	0.073966	0.440639	
18.952	0.275803	0.119267	0.130859	0.563636	0.020401	0.137389	0.200637	0.124711	0.124855	0.178386	0.034375	0.037633	0.032113	0.099059	0.072210	0.441149	
18.953	0.266105	0.118263	0.129135	0.561735	0.020102	0.138912	0.204683	0.122561	0.125267	0.173330	0.034370	0.037560	0.032551	0.096918	0.070435	0.441443	
18.954	0.256393	0.117352	0.127388	0.559668	0.019818	0.140525	0.208664	0.120580	0.125703	0.168403	0.034388	0.037477	0.033003	0.094792	0.068644	0.441518	
18.955	0.246686	0.116531	0.125619	0.557439	0.019547	0.142224	0.212572	0.118766	0.126157	0.163609	0.034428	0.037383	0.033468	0.092686	0.066838	0.441369	
18.956	0.237003	0.115795	0.123826	0.555051	0.019292	0.144006	0.216399	0.117119	0.126621	0.158952	0.034490	0.037277	0.033944	0.090600	0.065019	0.440993	
18.957	0.227364	0.115139	0.122011	0.552509	0.019050	0.145868	0.220137	0.115637	0.127088	0.154434	0.034573	0.037158	0.034429	0.088538	0.063189	0.440388	
18.958	0.217786	0.114559	0.120175	0.549818	0.018824	0.147807	0.223778	0.114317	0.127549	0.150057	0.034677	0.037027	0.034921	0.086500	0.061349	0.439552	
18.959	0.208289	0.114050	0.118318	0.546983	0.018611	0.149819	0.227314	0.113157	0.127997	0.145823	0.034802	0.036883	0.035418	0.084489	0.059502	0.438486	
18.960	0.198891	0.113606	0.116441	0.544011	0.018413	0.151900	0.230740	0.112153	0.128426	0.141734	0.034946	0.036726	0.035919	0.082506	0.057649	0.437190	
18.961	0.189610	0.113224	0.114546	0.540908	0.018229	0.154045	0.234048	0.111302	0.128828	0.137791	0.035109	0.036556	0.036421	0.080553	0.055794	0.435667	
18.962	0.180465	0.112898	0.112634	0.537681	0.018058	0.156252	0.237232	0.110600	0.129197	0.133995	0.035290	0.036372	0.036923	0.078632	0.053937	0.433917	
18.963	0.171473	0.112622	0.110706	0.534339	0.017900	0.158514	0.240286	0.110042	0.129525	0.130345	0.035488	0.036176	0.037422	0.076743	0.052083	0.431946	
18.964	0.162652	0.112392	0.108764	0.530887	0.017755	0.160829	0.243204	0.109622	0.129807	0.126842	0.035701	0.035966	0.037917	0.074887	0.050232	0.429757	
18.965	0.154019	0.112204	0.106810	0.527337	0.017622	0.163190	0.245982	0.109337	0.130036	0.123486	0.035930	0.035743	0.038406	0.073067	0.048388	0.427355	
18.966	0.145591	0.112051	0.104846	0.523695	0.017500	0.165595	0.248614	0.109179	0.130208	0.120275	0.036172	0.035508	0.038887	0.071282	0.046554	0.424745	
18.967	0.137384	0.111930	0.102874	0.519971	0.017390	0.168039	0.251096	0.109144	0.130316	0.117210	0.036427	0.035260	0.039358	0.069535	0.044732	0.421936	
18.968	0.129413	0.111836	0.100896	0.516174	0.017290	0.170517	0.253424	0.109225	0.130356	0.114287	0.036692	0.035000	0.039817	0.067825	0.042926	0.418932	
